<?xml version="1.0" encoding="UTF-8"?>
<svg width="237px" height="82px" viewBox="0 0 237 82" version="1.1" xmlns="http://www.w3.org/2000/svg" xmlns:xlink="http://www.w3.org/1999/xlink">
    <title>DF09E30C-93F4-40CE-B0C1-D2FA98728C47</title>
    <defs>
        <polygon id="path-1" points="0 0 63.3593237 0 63.3593237 51.9663214 0 51.9663214"></polygon>
    </defs>
    <g id="other" stroke="none" stroke-width="1" fill="none" fill-rule="evenodd">
        <g id="01-Login_temp" transform="translate(-48.000000, -24.000000)">
            <g id="Logo" transform="translate(48.000000, 24.000000)">
                <polyline id="Fill-1" fill="#001B31" points="49.723213 38.8063667 53.6618547 31.3259325 48.1230634 29.0526482 47.5558598 33.9799428 48.1230634 34.8354998 47.5558598 39.1944734 49.723213 38.8063667"></polyline>
                <polyline id="Fill-2" fill="#001B31" points="53.2963507 42.9734396 56.0247953 40.6072803 59.0331744 33.5008063 54.7082474 31.7017379 50.6546981 43.1591896 47.8321271 45.5241188 44.2657126 51.8679108 47.8321271 51.8679108 53.2963507 42.9734396"></polyline>
                <path d="M32.5090748,64.9276097 C41.6344505,64.9276097 51.5055034,60.8601775 57.2453831,53.3889693 L7.67313914,53.3889693 C14.733234,62.0909248 24.5107715,64.9276097 32.5090748,64.9276097" id="Fill-3" fill="#001B31"></path>
                <g id="Group-7">
                    <mask id="mask-2" fill="white">
                        <use xlink:href="#path-1"></use>
                    </mask>
                    <g id="Clip-5"></g>
                    <polyline id="Fill-4" fill="#001B31" mask="url(#mask-2)" points="37.7807671 51.8679108 42.2927245 51.8679108 46.9929348 42.9734396 46.1457967 41.3687321 37.7807671 51.8679108"></polyline>
                    <path d="M14.071904,36.632723 L16.5149131,29.8134849 L17.9310883,29.1467533 L12.38374,46.288031 L8.42492831,51.8672957 L10.1198156,51.8672957 L16.7972925,43.8191556 L20.0000366,31.3259325 L21.2261252,33.0339712 C20.7481585,38.8069818 20.941301,37.3794133 20.561128,40.6066652 L12.5677144,51.8672957 L14.4441313,51.8672957 L22.2590713,45.90669 L22.7242027,46.0936701 L19.8136173,51.8672957 L28.4616375,51.8672957 L41.7224649,42.9734396 L45.7717358,28.1091367 L55.5553855,27.6386112 L51.7909388,25.1765015 L30.3435553,21.5783647 C25.6470122,16.5631155 25.4538697,16.2783399 25.4538697,16.2783399 L31.0965668,16.7457902 L27.0534081,12.9643637 L27.0534081,9.07714579 L32.318377,10.0323435 L46.7136115,18.4569041 L63.3593237,22.995477 C61.6687149,15.1466183 51.6026859,0 32.6967165,0 C13.0340682,0 -0.0366726421,16.1836197 -0.0366726421,31.515988 C-0.0366726421,41.7390019 3.35187949,47.6067327 6.3572025,51.9663214 C8.42492831,47.2321575 12.38374,37.5731591 12.38374,37.5731591 L14.071904,36.632723 Z M2.22541816,31.515988 C2.22541816,17.3214921 14.2638241,2.07830842 32.6967165,2.07830842 C45.5840941,2.07830842 56.212437,10.3103534 59.9768837,19.9767325 L45.3933964,15.9043797 L32.4137259,8.60785034 L26.0149611,7.56100781 L23.1055981,13.8125398 L20.7481585,15.0439022 L17.0827279,24.4193551 C17.0827279,24.2262243 14.5400914,25.5541521 14.5400914,25.5541521 C14.5400914,25.5541521 9.08075739,40.2191736 6.3572025,47.6067327 C4.20085115,43.7312011 2.22541816,39.655773 2.22541816,31.515988 L2.22541816,31.515988 Z" id="Fill-6" fill="#001B31" mask="url(#mask-2)"></path>
                </g>
                <path d="M58.1817579,40.9855459 L51.3178617,51.8672957 L58.5552076,51.8672957 C62.4125583,46.4793165 64.2009608,40.8846751 64.5866348,35.3982853 L60.2543733,33.8846076 L58.1817579,40.9855459" id="Fill-8" fill="#001B31"></path>
                <path d="M95.9869734,14.5887533 L81.7903824,14.5887533 L81.7903824,16.2691139 L81.902234,16.2691139 C83.2964056,16.2691139 84.3525777,16.3244699 84.9093906,16.6615261 C85.743082,17.1092942 86.0786367,18.3400416 86.0786367,20.1335744 L86.0786367,47.7506582 C86.0786367,49.2631058 85.743082,50.102671 85.1881027,50.6057951 C84.6881323,51.0560235 83.6295154,51.2792925 82.2377886,51.2792925 L81.7903824,51.2792925 L81.7903824,52.9596532 L98.4911036,52.9596532 L98.4911036,51.2792925 L96.9325163,51.2792925 C95.3751515,51.2792925 94.4277749,50.9988224 93.9840359,50.4938531 C93.3703804,49.878787 93.25914,48.9285098 93.25914,47.7506582 L93.25914,36.3227297 L95.9869734,36.3227297 C103.89115,36.3227297 110.516063,33.2424786 110.516063,25.5104824 C110.516063,17.3897644 103.723678,14.5887533 95.9869734,14.5887533 M95.9869734,34.4726108 L93.25914,34.4726108 L93.25914,16.2131429 L95.9869734,16.2131429 C102.165091,16.2131429 103.277495,20.9743697 103.277495,25.5104824 C103.277495,30.0490553 102.110082,34.4726108 95.9869734,34.4726108" id="Fill-9" fill="#001B31"></path>
                <path d="M132.175537,33.6890166 L133.009228,33.6890166 C134.014058,33.6890166 135.069619,33.7456027 135.737673,34.418485 C136.628207,35.2580502 136.517577,37.3314381 136.517577,37.3314381 L136.517577,45.5087422 C136.517577,46.6859787 136.296319,48.4210803 135.570201,49.432249 C134.514029,50.9988224 133.009228,51.5603777 131.11692,51.5603777 C124.60447,51.5603777 123.602084,41.1393125 123.602084,33.9141308 C123.602084,26.9681891 124.659479,15.5396455 131.953056,15.5396455 C137.852462,15.5396455 139.747215,21.925877 141.025256,26.0136065 L142.919398,26.0136065 L142.919398,14.363024 L141.13833,14.363024 L138.967921,16.6621412 C138.910467,16.60494 139.021708,16.6621412 138.967921,16.60494 C137.909915,15.5396455 135.959542,13.7473428 131.617501,13.7473428 C122.209746,13.7473428 115.75475,22.2057321 115.75475,33.9141308 C115.75475,45.3426743 120.818631,53.7444775 130.115756,53.7444775 C134.177863,53.7444775 136.961928,51.8949737 138.241803,49.7668449 L138.298645,49.7668449 L141.91579,53.1829222 L143.696858,53.1829222 L143.696858,37.3314381 C143.696858,37.3314381 143.58684,35.2580502 144.476152,34.418485 C145.145428,33.7456027 146.147202,33.6890166 147.148976,33.6890166 L147.4283,33.6890166 L147.4283,31.9526849 L132.175537,31.9526849 L132.175537,33.6890166" id="Fill-10" fill="#001B31"></path>
                <path d="M152.666375,16.269729 L153.502512,16.269729 C154.894238,16.269729 155.28358,16.3250849 155.839781,16.6615261 C156.675918,17.1099093 157.009027,18.5091847 157.009027,20.3027175 L157.009027,47.7512733 C157.009027,49.2631058 156.675918,50.102056 156.118493,50.6057951 C155.616689,51.0554085 154.726155,51.2792925 153.391882,51.2792925 L152.666375,51.2792925 L152.666375,52.9602682 L168.532794,52.9602682 L168.532794,51.2792925 L167.864129,51.2792925 C166.305542,51.2792925 165.361222,50.9982073 164.859418,50.4944682 C164.301382,49.878787 164.190753,48.9272797 164.190753,47.7512733 L164.190753,20.3027175 C164.190753,19.1248659 164.356391,17.6702346 164.913204,17.050863 C165.415008,16.5477389 166.08245,16.269729 167.697269,16.269729 L168.532794,16.269729 L168.532794,14.5887533 L152.666375,14.5887533 L152.666375,16.269729" id="Fill-11" fill="#001B31"></path>
                <path d="M210.788846,17.4445053 C211.288816,16.604325 212.236193,16.2691139 214.017872,16.2691139 L214.629694,16.2691139 L214.629694,14.5893684 L202.215393,14.5893684 L194.033116,41.3072255 L185.739598,14.5893684 L173.771481,14.5893684 L173.771481,16.2691139 L174.328294,16.2691139 C175.44192,16.2691139 175.94189,16.381056 176.553712,16.716267 C177.667338,17.2778224 178.001059,18.3406566 178.001059,20.2467465 L177.83481,43.8289966 C177.779801,48.6474246 177.276774,49.5435759 176.610555,50.2133829 C175.998733,50.8327545 175.108199,51.2786775 174.050193,51.2786775 L173.771481,51.2786775 L173.771481,52.9590381 L184.570352,52.9590381 L184.570352,51.2786775 L183.95853,51.2786775 C182.844904,51.2786775 182.009379,50.8327545 181.396946,50.2133829 C180.72767,49.5435759 180.227699,48.4782814 180.173302,43.8289966 L180.005219,19.070125 L190.804701,52.9590381 L192.419519,52.9590381 L203.108372,19.070125 L203.108372,47.1891028 C203.108372,50.1598722 202.494105,51.2786775 199.320699,51.2786775 L198.820729,51.2786775 L198.820729,52.9590381 L214.629694,52.9590381 L214.629694,51.2786775 L214.128501,51.2786775 C210.956317,51.2786775 210.287653,50.1598722 210.287653,47.1891028 L210.287653,20.6938996 C210.287653,19.4059511 210.398282,18.1167726 210.788846,17.4445053" id="Fill-12" fill="#001B31"></path>
                <polygon id="Fill-13" fill="#001B31" points="81.7903824 81.7533585 84.8329893 81.7533585 84.8329893 63.9275122 81.7903824 63.9275122"></polygon>
                <path d="M90.4738528,71.3341384 L90.4738528,81.7533585 L87.7252383,81.7533585 L87.7252383,68.4703906 L90.3265511,68.4703906 L90.3265511,69.8038539 C90.6205434,69.5572124 90.8827528,69.3345585 91.1113456,69.1371222 C91.3405496,68.9403011 91.5770882,68.7754634 91.8221836,68.6432241 C92.0685016,68.5116 92.3331558,68.408884 92.6198136,68.334461 C92.9058602,68.260653 93.2542503,68.2243641 93.6631503,68.2243641 C94.399048,68.2243641 94.9674739,68.4667002 95.3684281,68.9519873 C95.7687711,69.4372745 95.968637,70.1243034 95.968637,71.013689 L95.968637,81.7533585 L93.2212449,81.7533585 L93.2212449,71.4577667 C93.2212449,71.1287063 93.1307858,70.8863703 92.9510898,70.7295284 C92.7713939,70.5733016 92.5342441,70.4951882 92.2402518,70.4951882 C91.9462594,70.4951882 91.6583792,70.5776071 91.3815007,70.7418297 C91.1033999,70.9072825 90.8002394,71.1041037 90.4738528,71.3341384" id="Fill-14" fill="#001B31"></path>
                <path d="M104.039674,79.0372265 L104.039674,71.1859075 C103.761573,70.9890863 103.500587,70.8242486 103.254269,70.6926245 C103.009784,70.5610003 102.747575,70.4951882 102.469474,70.4951882 C102.273275,70.4951882 102.097858,70.5240963 101.941999,70.5819126 C101.786752,70.6391137 101.648007,70.7504407 101.525154,70.9152784 C101.402911,71.079501 101.308174,71.2978495 101.243385,71.5690937 C101.177986,71.8403378 101.14498,72.1989214 101.14498,72.6429991 L101.14498,77.5807499 C101.14498,78.0254427 101.177986,78.3827962 101.243385,78.6552704 C101.308174,78.9258995 101.402911,79.144248 101.525154,79.3084707 C101.648007,79.4733084 101.786752,79.5840203 101.941999,79.6418365 C102.097858,79.7002678 102.273275,79.7285608 102.469474,79.7285608 C102.747575,79.7285608 103.009784,79.6627487 103.254269,79.5305095 C103.500587,79.4001155 103.761573,79.2346627 104.039674,79.0372265 Z M106.787066,63.9275122 L106.787066,81.7533585 L104.187587,81.7533585 L104.187587,80.3706898 L104.138079,80.3706898 C103.680282,80.9463917 103.246323,81.3627915 102.838034,81.6168138 C102.429134,81.8720662 101.880878,82 101.193877,82 C100.310067,82 99.623677,81.6912368 99.1334861,81.0737104 C98.6426839,80.4567991 98.3975884,79.5305095 98.3975884,78.2966869 L98.3975884,71.9270622 C98.3975884,70.6926245 98.6426839,69.7669499 99.1334861,69.1494236 C99.623677,68.5325122 100.310067,68.2243641 101.193877,68.2243641 C101.504372,68.2243641 101.774527,68.2569626 102.003732,68.3227747 C102.232324,68.3879717 102.449304,68.4796166 102.654671,68.5934038 C102.858204,68.7096513 103.070905,68.8535768 103.291552,69.0264103 C103.512811,69.1992439 103.761573,69.3929897 104.039674,69.6064177 L104.039674,63.9275122 L106.787066,63.9275122 L106.787066,63.9275122 Z" id="Fill-15" fill="#001B31"></path>
                <path d="M109.329092,81.7533585 L112.076484,81.7533585 L112.076484,68.4703906 L109.329092,68.4703906 L109.329092,81.7533585 Z M109.329092,66.446208 L112.076484,66.446208 L112.076484,63.9275122 L109.329092,63.9275122 L109.329092,66.446208 Z" id="Fill-16" fill="#001B31"></path>
                <path d="M120.061952,78.4941231 L120.061952,75.0128489 C119.439739,75.3757379 118.924489,75.7091037 118.5162,76.0129464 C118.106077,76.3174041 117.788248,76.6058701 117.559044,76.8771143 C117.330451,77.1483584 117.170925,77.4165273 117.079855,77.6791605 C116.990618,77.9430239 116.945388,78.2222639 116.945388,78.5187258 C116.945388,78.9468118 117.05235,79.255575 117.265052,79.4444003 C117.47653,79.6338406 117.796194,79.7285608 118.220374,79.7285608 C118.597491,79.7285608 118.940991,79.6055476 119.252097,79.358291 C119.561981,79.1116495 119.832748,78.8237986 120.061952,78.4941231 Z M117.140976,72.371755 L114.394195,72.371755 C114.474875,71.0216848 114.908834,69.9939093 115.69424,69.2853532 C116.479646,68.5780271 117.518093,68.2243641 118.810803,68.2243641 C120.085789,68.2243641 121.070449,68.5159055 121.766618,69.0996032 C122.460954,69.6851462 122.808733,70.5935988 122.808733,71.8286516 L122.808733,80.3460872 C122.808733,80.5595151 122.830125,80.7895499 122.869854,81.0374215 C122.911416,81.284063 122.9487,81.5227087 122.980483,81.7533585 L120.355944,81.7533585 C120.340053,81.572529 120.314382,81.3947749 120.282599,81.2219414 C120.248982,81.0491078 120.225145,80.8811947 120.208031,80.716357 C119.684835,81.143828 119.185476,81.4648925 118.712398,81.6789355 C118.238099,81.8929785 117.666006,82 116.994896,82 C116.061578,82 115.362964,81.7158395 114.897221,81.1481334 C114.431479,80.5798123 114.198607,79.8681808 114.198607,79.0126239 C114.198607,78.288691 114.316571,77.6379511 114.553721,77.0622492 C114.790259,76.4859322 115.155152,75.9600507 115.644732,75.4821443 C116.136145,75.004853 116.749801,74.5650807 117.485699,74.1609823 C118.220374,73.758114 119.080347,73.367547 120.061952,72.9886663 L120.061952,72.1989214 C120.061952,71.0628943 119.611489,70.4951882 118.712398,70.4951882 C118.090186,70.4951882 117.681286,70.6637163 117.485699,71.0013876 C117.288889,71.3390589 117.174592,71.795438 117.140976,72.371755 L117.140976,72.371755 Z" id="Fill-17" fill="#001B31"></path>
                <polyline id="Fill-18" fill="#001B31" points="137.01388 74.3467323 139.172677 63.9275122 143.172439 63.9275122 143.172439 81.7533585 140.52223 81.7533585 140.52223 67.8288766 140.472722 67.8288766 137.725941 81.7533585 136.253534 81.7533585 133.50492 67.8288766 133.457245 67.8288766 133.457245 81.7533585 130.807036 81.7533585 130.807036 63.9275122 134.805576 63.9275122 136.964372 74.3467323 137.01388 74.3467323"></polyline>
                <path d="M151.291151,78.8889956 L151.291151,68.4703906 L154.038543,68.4703906 L154.038543,81.7533585 L151.439064,81.7533585 L151.439064,80.4198951 C151.143849,80.6665367 150.882862,80.8885755 150.653658,81.0866268 C150.425066,81.284063 150.188527,81.4495158 149.941598,81.5799098 C149.697114,81.7121491 149.430626,81.81425 149.14519,81.888673 C148.858533,81.963096 148.510754,82 148.101854,82 C147.365956,82 146.798141,81.7570489 146.397187,81.2717617 C145.996844,80.7864745 145.795756,80.0988306 145.795756,79.2100601 L145.795756,68.4703906 L148.54437,68.4703906 L148.54437,78.7653673 C148.54437,79.0944277 148.633607,79.3379938 148.813303,79.4942206 C148.994221,79.6510625 149.23076,79.7285608 149.525364,79.7285608 C149.819356,79.7285608 150.106014,79.646142 150.384115,79.4819193 C150.662215,79.3176967 150.964154,79.1196454 151.291151,78.8889956" id="Fill-19" fill="#001B31"></path>
                <path d="M157.378199,79.0126239 L157.378199,70.7418297 L155.856895,70.7418297 L155.856895,68.4703906 L157.378199,68.4703906 L157.378199,64.8913208 L160.125591,64.8913208 L160.125591,68.4703906 L161.966557,68.4703906 L161.966557,70.7418297 L160.125591,70.7418297 L160.125591,78.3950975 C160.125591,79.1196454 160.437308,79.4819193 161.058909,79.4819193 L161.966557,79.4819193 L161.966557,81.8517691 C161.785639,81.9009744 161.597997,81.9378783 161.401799,81.963096 C161.204989,81.9876987 160.936667,82 160.592556,82 C159.562666,82 158.768092,81.7607393 158.212501,81.284063 C157.656299,80.8067717 157.378199,80.0490103 157.378199,79.0126239" id="Fill-20" fill="#001B31"></path>
                <path d="M169.377487,78.8889956 L169.377487,68.4703906 L172.124879,68.4703906 L172.124879,81.7533585 L169.5254,81.7533585 L169.5254,80.4198951 C169.230185,80.6665367 168.969198,80.8885755 168.739994,81.0866268 C168.511402,81.284063 168.274252,81.4495158 168.027934,81.5799098 C167.78345,81.7121491 167.516962,81.81425 167.230304,81.888673 C166.944869,81.963096 166.59709,82 166.18819,82 C165.452292,82 164.884477,81.7570489 164.483523,81.2717617 C164.082569,80.7864745 163.882092,80.0988306 163.882092,79.2100601 L163.882092,68.4703906 L166.630706,68.4703906 L166.630706,78.7653673 C166.630706,79.0944277 166.719332,79.3379938 166.899028,79.4942206 C167.079946,79.6510625 167.317096,79.7285608 167.611088,79.7285608 C167.905692,79.7285608 168.191738,79.646142 168.47045,79.4819193 C168.748551,79.3176967 169.050489,79.1196454 169.377487,78.8889956" id="Fill-21" fill="#001B31"></path>
                <path d="M180.097512,78.4941231 L180.097512,75.0128489 C179.476522,75.3757379 178.961271,75.7091037 178.552982,76.0129464 C178.14286,76.3174041 177.824419,76.6058701 177.595215,76.8771143 C177.366622,77.1483584 177.207096,77.4165273 177.116026,77.6791605 C177.0274,77.9430239 176.981559,78.2222639 176.981559,78.5187258 C176.981559,78.9468118 177.088521,79.255575 177.301223,79.4444003 C177.513313,79.6338406 177.832365,79.7285608 178.256545,79.7285608 C178.633662,79.7285608 178.977162,79.6055476 179.28888,79.358291 C179.598764,79.1116495 179.868919,78.8237986 180.097512,78.4941231 Z M177.177758,72.371755 L174.430366,72.371755 C174.511046,71.0216848 174.945005,69.9939093 175.731022,69.2853532 C176.516428,68.5780271 177.554264,68.2243641 178.846363,68.2243641 C180.12196,68.2243641 181.10662,68.5159055 181.802789,69.0996032 C182.497736,69.6851462 182.844904,70.5935988 182.844904,71.8286516 L182.844904,80.3460872 C182.844904,80.5595151 182.866296,80.7895499 182.906636,81.0374215 C182.947587,81.284063 182.984871,81.5227087 183.016654,81.7533585 L180.392115,81.7533585 C180.376224,81.572529 180.350553,81.3947749 180.31877,81.2219414 C180.285764,81.0491078 180.261927,80.8811947 180.244202,80.716357 C179.721006,81.143828 179.222258,81.4648925 178.747958,81.6789355 C178.27427,81.8929785 177.702177,82 177.031679,82 C176.097749,82 175.399746,81.7158395 174.933392,81.1481334 C174.46765,80.5798123 174.234167,79.8681808 174.234167,79.0126239 C174.234167,78.288691 174.353353,77.6379511 174.589892,77.0622492 C174.827042,76.4859322 175.191935,75.9600507 175.681514,75.4821443 C176.172316,75.004853 176.785972,74.5650807 177.52187,74.1609823 C178.256545,73.758114 179.11713,73.367547 180.097512,72.9886663 L180.097512,72.1989214 C180.097512,71.0628943 179.648272,70.4951882 178.747958,70.4951882 C178.126968,70.4951882 177.718068,70.6637163 177.52187,71.0013876 C177.32506,71.3390589 177.210763,71.795438 177.177758,72.371755 L177.177758,72.371755 Z" id="Fill-22" fill="#001B31"></path>
                <polygon id="Fill-23" fill="#001B31" points="185.44316 81.7533585 188.190552 81.7533585 188.190552 63.9275122 185.44316 63.9275122"></polygon>
                <polyline id="Fill-24" fill="#001B31" points="199.303585 73.8528342 199.303585 81.7533585 196.26159 81.7533585 196.26159 63.9275122 204.750084 63.9275122 204.750084 66.5944389 199.303585 66.5944389 199.303585 71.1859075 203.376082 71.1859075 203.376082 73.8528342 199.303585 73.8528342"></polyline>
                <path d="M211.854797,78.8889956 L211.854797,68.4703906 L214.602189,68.4703906 L214.602189,81.7533585 L212.00271,81.7533585 L212.00271,80.4198951 C211.707495,80.6665367 211.446508,80.8885755 211.217304,81.0866268 C210.988712,81.284063 210.751562,81.4495158 210.505244,81.5799098 C210.26076,81.7121491 209.994272,81.81425 209.707614,81.888673 C209.422179,81.963096 209.0744,82 208.6655,82 C207.929602,82 207.361787,81.7570489 206.960833,81.2717617 C206.559879,80.7864745 206.359402,80.0988306 206.359402,79.2100601 L206.359402,68.4703906 L209.108016,68.4703906 L209.108016,78.7653673 C209.108016,79.0944277 209.197253,79.3379938 209.376338,79.4942206 C209.557256,79.6510625 209.794406,79.7285608 210.088398,79.7285608 C210.383002,79.7285608 210.669048,79.646142 210.947149,79.4819193 C211.22525,79.3176967 211.527799,79.1196454 211.854797,78.8889956" id="Fill-25" fill="#001B31"></path>
                <path d="M219.882439,71.3341384 L219.882439,81.7533585 L217.133824,81.7533585 L217.133824,68.4703906 L219.735137,68.4703906 L219.735137,69.8038539 C220.029129,69.5572124 220.291339,69.3345585 220.519931,69.1371222 C220.749135,68.9403011 220.986285,68.7754634 221.230769,68.6432241 C221.477087,68.5116 221.741742,68.408884 222.028399,68.334461 C222.313835,68.260653 222.663447,68.2243641 223.071736,68.2243641 C223.807634,68.2243641 224.37606,68.4667002 224.777014,68.9519873 C225.177357,69.4372745 225.377223,70.1243034 225.377223,71.013689 L225.377223,81.7533585 L222.629831,81.7533585 L222.629831,71.4577667 C222.629831,71.1287063 222.539371,70.8863703 222.359676,70.7295284 C222.17998,70.5733016 221.94283,70.4951882 221.648837,70.4951882 C221.354845,70.4951882 221.066965,70.5776071 220.790086,70.7418297 C220.511986,70.9072825 220.208825,71.1041037 219.882439,71.3341384" id="Fill-26" fill="#001B31"></path>
                <path d="M233.44826,79.0372265 L233.44826,71.1859075 C233.170159,70.9890863 232.909172,70.8242486 232.662854,70.6926245 C232.41837,70.5610003 232.156161,70.4951882 231.87806,70.4951882 C231.682472,70.4951882 231.506444,70.5240963 231.351196,70.5819126 C231.195337,70.6391137 231.056593,70.7504407 230.93435,70.9152784 C230.811497,71.079501 230.716759,71.2978495 230.651971,71.5690937 C230.587183,71.8403378 230.553566,72.1989214 230.553566,72.6429991 L230.553566,77.5807499 C230.553566,78.0254427 230.587183,78.3827962 230.651971,78.6552704 C230.716759,78.9258995 230.811497,79.144248 230.93435,79.3084707 C231.056593,79.4733084 231.195337,79.5840203 231.351196,79.6418365 C231.506444,79.7002678 231.682472,79.7285608 231.87806,79.7285608 C232.156161,79.7285608 232.41837,79.6627487 232.662854,79.5305095 C232.909172,79.4001155 233.170159,79.2346627 233.44826,79.0372265 Z M236.195652,63.9275122 L236.195652,81.7533585 L233.596173,81.7533585 L233.596173,80.3706898 L233.546665,80.3706898 C233.088868,80.9463917 232.654909,81.3627915 232.246009,81.6168138 C231.83772,81.8720662 231.289464,82 230.602463,82 C229.719264,82 229.032263,81.6912368 228.542072,81.0737104 C228.05127,80.4567991 227.806174,79.5305095 227.806174,78.2966869 L227.806174,71.9270622 C227.806174,70.6926245 228.05127,69.7669499 228.542072,69.1494236 C229.032263,68.5325122 229.719264,68.2243641 230.602463,68.2243641 C230.912958,68.2243641 231.183113,68.2569626 231.411706,68.3227747 C231.64091,68.3879717 231.85789,68.4796166 232.063257,68.5934038 C232.26679,68.7096513 232.479491,68.8535768 232.700749,69.0264103 C232.921396,69.1992439 233.170159,69.3929897 233.44826,69.6064177 L233.44826,63.9275122 L236.195652,63.9275122 L236.195652,63.9275122 Z" id="Fill-27" fill="#001B31"></path>
            </g>
        </g>
    </g>
</svg>